<?xml version="1.0" standalone="no"?>
<!DOCTYPE svg PUBLIC "-//W3C//DTD SVG 20010904//EN"
 "http://www.w3.org/TR/2001/REC-SVG-20010904/DTD/svg10.dtd">
<svg version="1.0" xmlns="http://www.w3.org/2000/svg"
 width="641.000000pt" height="450.000000pt" viewBox="0 0 641.000000 450.000000"
 preserveAspectRatio="xMidYMid meet">
<metadata>
Created by potrace 1.16, written by Peter Selinger 2001-2019
</metadata>
<g transform="translate(0.000000,450.000000) scale(0.100000,-0.100000)"
fill="#000000" stroke="none">
<path d="M1559 3941 l-29 -29 0 -571 c0 -313 -4 -572 -8 -575 -12 -7 -256 94
-376 157 -60 31 -120 57 -132 57 -26 0 -48 -32 -40 -58 5 -15 230 -149 461
-273 44 -23 83 -48 87 -53 4 -6 8 -59 8 -117 l0 -106 73 -22 c136 -40 443
-101 511 -101 8 0 15 16 19 41 3 22 8 43 10 46 3 3 45 -4 94 -16 158 -37 275
-51 419 -51 166 0 294 21 520 86 l51 14 43 125 c24 69 46 125 50 125 4 0 21
-43 39 -95 18 -52 36 -95 40 -95 4 0 113 37 242 81 445 154 571 191 799 230
186 33 524 32 677 -1 81 -18 224 -68 296 -104 58 -29 72 -33 101 -25 100 28
155 151 109 246 -30 65 -178 159 -341 217 -241 86 -576 99 -907 35 -129 -25
-125 -29 -125 146 0 212 -14 205 425 205 l325 0 32 29 33 29 0 197 0 197 -33
29 -32 29 -656 0 c-427 0 -662 -4 -674 -10 -44 -24 -45 -31 -50 -570 l-5 -514
-203 -69 c-112 -38 -205 -67 -208 -65 -2 3 7 30 22 62 56 123 81 367 53 536
-39 240 -179 443 -371 538 -161 80 -276 92 -876 92 l-444 0 -29 -29z m1006
-502 l194 -141 -13 -41 c-7 -23 -41 -129 -76 -234 l-63 -193 -243 0 -243 0
-72 223 c-39 122 -72 228 -73 235 -1 12 369 291 387 292 5 0 96 -63 202 -141z"/>
<path d="M4610 2370 c-247 -19 -497 -80 -855 -208 -313 -112 -350 -126 -357
-136 -3 -5 -21 -54 -40 -108 -18 -54 -35 -98 -38 -98 -3 0 -18 38 -33 84 l-27
83 -98 -29 c-145 -43 -323 -77 -449 -84 -62 -4 -113 -11 -113 -17 0 -5 -7 -4
-16 4 -12 9 -51 12 -154 10 -76 -1 -175 1 -219 5 l-81 7 0 36 c0 37 -1 38 -57
55 -103 32 -265 97 -402 162 -74 35 -136 64 -138 64 -1 0 -3 -43 -3 -96 l0
-96 -26 6 c-60 15 -248 95 -372 158 -106 54 -137 66 -152 58 -25 -13 -35 -47
-19 -66 13 -16 273 -165 454 -261 l110 -58 5 -87 c5 -79 8 -90 33 -115 l27
-28 245 -2 c225 -2 251 -4 337 -27 311 -83 572 -87 873 -11 80 21 480 150 558
180 14 6 17 1 17 -32 0 -21 7 -49 16 -61 33 -48 58 -52 294 -52 318 0 320 2
320 219 l0 130 38 10 c156 42 463 62 628 41 141 -17 274 -54 384 -106 107 -51
163 -58 225 -28 72 34 112 137 85 218 -6 20 -31 53 -57 76 -41 36 -51 40 -98
40 -37 0 -66 8 -101 26 -197 105 -476 155 -744 134z"/>
<path d="M1555 1365 c-16 -15 -25 -36 -25 -55 0 -38 39 -80 73 -80 42 0 77 36
77 80 0 71 -76 104 -125 55z"/>
<path d="M4260 1085 l0 -305 70 0 70 0 0 305 0 305 -70 0 -70 0 0 -305z"/>
<path d="M1030 1071 l0 -291 75 0 75 0 0 94 0 93 83 5 c135 9 187 52 195 160
6 78 -4 121 -35 158 -46 55 -73 63 -240 68 l-153 5 0 -292z m258 149 c51 -48
9 -130 -68 -130 l-40 0 0 75 0 75 43 0 c30 0 50 -6 65 -20z"/>
<path d="M3820 1070 l0 -290 80 0 80 0 0 115 0 115 90 0 90 0 0 60 0 60 -90 0
-90 0 0 55 0 55 95 0 95 0 0 60 0 60 -175 0 -175 0 0 -290z"/>
<path d="M2180 1240 l0 -60 -30 0 c-29 0 -30 -1 -30 -50 0 -49 1 -50 30 -50
l30 0 0 -150 0 -150 70 0 70 0 0 150 0 150 30 0 c29 0 30 1 30 50 0 49 -1 50
-30 50 l-30 0 0 60 0 60 -70 0 -70 0 0 -60z"/>
<path d="M1896 1178 c-52 -14 -112 -75 -127 -130 -25 -95 11 -204 83 -248 43
-26 123 -35 173 -18 l40 13 3 63 c3 65 -1 71 -32 47 -30 -23 -79 -19 -110 10
-36 34 -37 105 -1 140 28 29 80 33 111 10 30 -23 34 -19 34 45 l0 59 -37 10
c-46 13 -85 12 -137 -1z"/>
<path d="M3164 1176 c-17 -8 -43 -29 -57 -47 l-27 -34 0 43 0 42 -65 0 -65 0
0 -200 0 -200 69 0 69 0 4 116 3 116 34 30 c28 25 40 29 77 26 35 -2 44 0 44
13 0 9 3 37 6 63 l7 46 -34 0 c-19 -1 -48 -7 -65 -14z"/>
<path d="M3447 1177 c-147 -48 -197 -234 -90 -340 80 -80 246 -89 323 -17 17
16 30 32 30 37 0 5 -22 16 -48 25 -45 14 -50 14 -71 -3 -27 -22 -97 -25 -122
-6 -18 13 -39 50 -39 66 0 7 51 11 151 11 l151 0 -4 55 c-6 68 -46 131 -100
158 -48 23 -132 30 -181 14z"/>
<path d="M4626 1178 c-54 -15 -121 -84 -136 -140 -25 -91 15 -190 95 -235 149
-84 335 14 335 176 0 64 -11 91 -56 140 -55 62 -144 84 -238 59z m132 -128
c61 -57 25 -160 -55 -160 -49 0 -83 37 -83 90 0 77 84 120 138 70z"/>
<path d="M1540 980 l0 -200 70 0 70 0 0 200 0 200 -70 0 -70 0 0 -200z"/>
<path d="M2442 1028 c3 -174 10 -193 82 -231 32 -16 59 -21 121 -21 86 0 122
12 163 56 34 37 42 80 42 220 l0 128 -70 0 -70 0 0 -128 c0 -148 -9 -172 -64
-172 -58 0 -66 19 -66 168 l0 132 -71 0 -71 0 4 -152z"/>
<path d="M4950 1173 c0 -5 36 -93 79 -198 l80 -190 50 -3 50 -3 37 117 38 117
39 -116 39 -117 48 0 48 0 62 148 c34 81 71 167 81 191 10 24 19 47 19 52 0 5
-31 9 -69 9 l-69 0 -40 -117 -39 -118 -39 118 -38 117 -42 0 -42 0 -38 -116
-38 -116 -39 116 -39 116 -69 0 c-38 0 -69 -3 -69 -7z"/>
</g>
</svg>
